<mxfile host="app.diagrams.net" modified="2022-10-16T05:16:25.776Z" agent="5.0 (Windows NT 10.0; Win64; x64) AppleWebKit/537.36 (KHTML, like Gecko) Chrome/106.0.0.0 Safari/537.36" etag="WfWHHhotqOcvq615cZoz" version="20.4.1" type="github">
  <diagram id="iwoXPEbMO1RmM2gbNMWF" name="Страница 1">
    <mxGraphModel dx="4063" dy="2177" grid="1" gridSize="10" guides="1" tooltips="1" connect="1" arrows="1" fold="1" page="1" pageScale="1" pageWidth="827" pageHeight="1169" math="0" shadow="0">
      <root>
        <mxCell id="0" />
        <mxCell id="1" parent="0" />
        <mxCell id="h-SG83MsA-UFgepHptKh-5" value="" style="edgeStyle=orthogonalEdgeStyle;rounded=0;orthogonalLoop=1;jettySize=auto;html=1;strokeColor=default;dashed=1;" edge="1" parent="1" source="h-SG83MsA-UFgepHptKh-1" target="h-SG83MsA-UFgepHptKh-4">
          <mxGeometry relative="1" as="geometry" />
        </mxCell>
        <mxCell id="h-SG83MsA-UFgepHptKh-1" value="Рендерим карту" style="rounded=0;whiteSpace=wrap;html=1;fillColor=#d5e8d4;strokeColor=#82b366;" vertex="1" parent="1">
          <mxGeometry x="340" y="20" width="120" height="60" as="geometry" />
        </mxCell>
        <mxCell id="h-SG83MsA-UFgepHptKh-16" value="" style="edgeStyle=orthogonalEdgeStyle;rounded=0;orthogonalLoop=1;jettySize=auto;html=1;dashed=1;strokeColor=default;" edge="1" parent="1" source="h-SG83MsA-UFgepHptKh-4" target="h-SG83MsA-UFgepHptKh-15">
          <mxGeometry relative="1" as="geometry" />
        </mxCell>
        <mxCell id="h-SG83MsA-UFgepHptKh-4" value="Пользователь начинает вводить адрес" style="ellipse;whiteSpace=wrap;html=1;fillColor=#fff2cc;strokeColor=#d6b656;rounded=0;" vertex="1" parent="1">
          <mxGeometry x="335" y="140" width="130" height="60" as="geometry" />
        </mxCell>
        <mxCell id="h-SG83MsA-UFgepHptKh-11" value="input формы" style="text;html=1;strokeColor=none;fillColor=none;align=center;verticalAlign=middle;whiteSpace=wrap;rounded=0;" vertex="1" parent="1">
          <mxGeometry x="400" y="100" width="60" height="30" as="geometry" />
        </mxCell>
        <mxCell id="h-SG83MsA-UFgepHptKh-13" value="Обработчик событий" style="text;html=1;strokeColor=none;fillColor=none;align=center;verticalAlign=middle;whiteSpace=wrap;rounded=0;" vertex="1" parent="1">
          <mxGeometry x="414" y="210" width="60" height="30" as="geometry" />
        </mxCell>
        <mxCell id="h-SG83MsA-UFgepHptKh-18" value="" style="edgeStyle=orthogonalEdgeStyle;rounded=0;orthogonalLoop=1;jettySize=auto;html=1;strokeColor=default;" edge="1" parent="1" source="h-SG83MsA-UFgepHptKh-15" target="h-SG83MsA-UFgepHptKh-17">
          <mxGeometry relative="1" as="geometry" />
        </mxCell>
        <mxCell id="h-SG83MsA-UFgepHptKh-15" value="Отображаются подсказки полного адреса" style="rounded=0;whiteSpace=wrap;html=1;fillColor=#d5e8d4;strokeColor=#82b366;" vertex="1" parent="1">
          <mxGeometry x="340" y="270" width="120" height="60" as="geometry" />
        </mxCell>
        <mxCell id="h-SG83MsA-UFgepHptKh-20" value="" style="edgeStyle=orthogonalEdgeStyle;rounded=0;orthogonalLoop=1;jettySize=auto;html=1;strokeColor=default;dashed=1;" edge="1" parent="1" source="h-SG83MsA-UFgepHptKh-17" target="h-SG83MsA-UFgepHptKh-19">
          <mxGeometry relative="1" as="geometry" />
        </mxCell>
        <mxCell id="h-SG83MsA-UFgepHptKh-17" value="Пользователь выбирает свой адрес" style="ellipse;whiteSpace=wrap;html=1;fillColor=#d5e8d4;strokeColor=#82b366;rounded=0;" vertex="1" parent="1">
          <mxGeometry x="340" y="400" width="120" height="60" as="geometry" />
        </mxCell>
        <mxCell id="h-SG83MsA-UFgepHptKh-29" value="" style="edgeStyle=orthogonalEdgeStyle;rounded=0;orthogonalLoop=1;jettySize=auto;html=1;dashed=1;strokeColor=default;" edge="1" parent="1" source="h-SG83MsA-UFgepHptKh-19" target="h-SG83MsA-UFgepHptKh-28">
          <mxGeometry relative="1" as="geometry" />
        </mxCell>
        <mxCell id="h-SG83MsA-UFgepHptKh-19" value="Определение координат адреса" style="whiteSpace=wrap;html=1;fillColor=#d5e8d4;strokeColor=#82b366;rounded=0;" vertex="1" parent="1">
          <mxGeometry x="340" y="525" width="120" height="60" as="geometry" />
        </mxCell>
        <mxCell id="h-SG83MsA-UFgepHptKh-21" value="Обработчик" style="text;html=1;strokeColor=none;fillColor=none;align=center;verticalAlign=middle;whiteSpace=wrap;rounded=0;" vertex="1" parent="1">
          <mxGeometry x="420" y="480" width="60" height="30" as="geometry" />
        </mxCell>
        <mxCell id="h-SG83MsA-UFgepHptKh-30" style="edgeStyle=orthogonalEdgeStyle;rounded=0;orthogonalLoop=1;jettySize=auto;html=1;dashed=1;strokeColor=default;entryX=0;entryY=0.5;entryDx=0;entryDy=0;" edge="1" parent="1" source="h-SG83MsA-UFgepHptKh-28" target="h-SG83MsA-UFgepHptKh-31">
          <mxGeometry relative="1" as="geometry">
            <mxPoint x="610" y="722.5" as="targetPoint" />
          </mxGeometry>
        </mxCell>
        <mxCell id="h-SG83MsA-UFgepHptKh-35" style="edgeStyle=orthogonalEdgeStyle;rounded=0;orthogonalLoop=1;jettySize=auto;html=1;dashed=1;strokeColor=default;entryX=1;entryY=0.5;entryDx=0;entryDy=0;" edge="1" parent="1" source="h-SG83MsA-UFgepHptKh-28" target="h-SG83MsA-UFgepHptKh-37">
          <mxGeometry relative="1" as="geometry">
            <mxPoint x="210" y="722.5" as="targetPoint" />
          </mxGeometry>
        </mxCell>
        <mxCell id="h-SG83MsA-UFgepHptKh-28" value="Координаты попадают в зону многоугольника?" style="rhombus;whiteSpace=wrap;html=1;fillColor=#d5e8d4;strokeColor=#82b366;rounded=0;" vertex="1" parent="1">
          <mxGeometry x="292.5" y="640" width="215" height="165" as="geometry" />
        </mxCell>
        <mxCell id="h-SG83MsA-UFgepHptKh-34" value="" style="edgeStyle=orthogonalEdgeStyle;rounded=0;orthogonalLoop=1;jettySize=auto;html=1;dashed=1;strokeColor=default;" edge="1" parent="1" source="h-SG83MsA-UFgepHptKh-31" target="h-SG83MsA-UFgepHptKh-33">
          <mxGeometry relative="1" as="geometry" />
        </mxCell>
        <mxCell id="h-SG83MsA-UFgepHptKh-31" value="Предлагаем самовывоз" style="rounded=0;whiteSpace=wrap;html=1;fillColor=#f8cecc;strokeColor=#b85450;" vertex="1" parent="1">
          <mxGeometry x="580" y="698.75" width="80" height="47.5" as="geometry" />
        </mxCell>
        <mxCell id="h-SG83MsA-UFgepHptKh-32" value="нет" style="text;html=1;strokeColor=none;fillColor=none;align=center;verticalAlign=middle;whiteSpace=wrap;rounded=0;" vertex="1" parent="1">
          <mxGeometry x="507.5" y="690" width="60" height="30" as="geometry" />
        </mxCell>
        <mxCell id="h-SG83MsA-UFgepHptKh-33" value="Отображаем под формой шаблон ответа" style="rounded=0;whiteSpace=wrap;html=1;fillColor=#f8cecc;strokeColor=#b85450;" vertex="1" parent="1">
          <mxGeometry x="560" y="830" width="120" height="50" as="geometry" />
        </mxCell>
        <mxCell id="h-SG83MsA-UFgepHptKh-39" value="" style="edgeStyle=orthogonalEdgeStyle;rounded=0;orthogonalLoop=1;jettySize=auto;html=1;dashed=1;strokeColor=default;" edge="1" parent="1" source="h-SG83MsA-UFgepHptKh-37" target="h-SG83MsA-UFgepHptKh-38">
          <mxGeometry relative="1" as="geometry" />
        </mxCell>
        <mxCell id="h-SG83MsA-UFgepHptKh-37" value="Определяем в какую зону попадают координаты" style="rounded=1;whiteSpace=wrap;html=1;fillColor=#d5e8d4;strokeColor=#82b366;" vertex="1" parent="1">
          <mxGeometry x="70" y="692.5" width="120" height="60" as="geometry" />
        </mxCell>
        <mxCell id="h-SG83MsA-UFgepHptKh-38" value="Отображаем надпись в какую зону попадает" style="rounded=1;whiteSpace=wrap;html=1;fillColor=#d5e8d4;strokeColor=#82b366;" vertex="1" parent="1">
          <mxGeometry x="70" y="832.5" width="120" height="60" as="geometry" />
        </mxCell>
      </root>
    </mxGraphModel>
  </diagram>
</mxfile>
